<svg width="1600" height="900" viewBox="0 0 1600 900" fill="none" xmlns="http://www.w3.org/2000/svg">
  <rect width="1600" height="900" fill="#171412"/>
  <rect width="1600" height="900" fill="url(#paint0_radial)"/>
  <rect x="120" y="170" width="560" height="560" rx="28" fill="#2B2520"/>
  <rect x="220" y="270" width="360" height="360" rx="24" fill="#F2A93B"/>
  <rect x="288" y="338" width="224" height="224" rx="16" fill="#FFF4E1"/>
  <rect x="820" y="180" width="620" height="120" rx="22" fill="#342B24"/>
  <rect x="820" y="350" width="480" height="72" rx="18" fill="#4A3A2D"/>
  <rect x="820" y="456" width="540" height="72" rx="18" fill="#4A3A2D"/>
  <rect x="820" y="562" width="420" height="72" rx="18" fill="#4A3A2D"/>
  <circle cx="1310" cy="670" r="110" fill="#6E5233" fill-opacity="0.45"/>
  <path d="M0 760C193 727 330 718 533 742C760 769 957 827 1217 789C1384 764 1496 728 1600 736V900H0V760Z" fill="#241D18"/>
  <defs>
    <radialGradient id="paint0_radial" cx="0" cy="0" r="1" gradientUnits="userSpaceOnUse" gradientTransform="translate(1114 136) rotate(124.834) scale(604.552 1023.83)">
      <stop stop-color="#5D401A"/>
      <stop offset="1" stop-color="#171412" stop-opacity="0"/>
    </radialGradient>
  </defs>
</svg>
